TITLE ""
FILE "1Q_t_0088-0100.mp3" MP3
  TRACK 01 AUDIO
    TITLE "1Q_t_0088-0100_01"
    INDEX 01 00:00:00
  TRACK 02 AUDIO
    TITLE "1Q_t_0088-0100_02"
    INDEX 01 00:01:18
  TRACK 03 AUDIO
    TITLE "1Q_t_0088-0100_03"
    INDEX 01 00:01:33
  TRACK 04 AUDIO
    TITLE "1Q_t_0088-0100_04"
    INDEX 01 00:02:62
  TRACK 05 AUDIO
    TITLE "1Q_t_0088-0100_05"
    INDEX 01 00:03:01
  TRACK 06 AUDIO
    TITLE "1Q_t_0088-0100_06"
    INDEX 01 00:07:16
  TRACK 07 AUDIO
    TITLE "1Q_t_0088-0100_07"
    INDEX 01 00:08:00
  TRACK 08 AUDIO
    TITLE "1Q_t_0088-0100_08"
    INDEX 01 00:09:13
  TRACK 09 AUDIO
    TITLE "1Q_t_0088-0100_09"
    INDEX 01 00:09:29
  TRACK 10 AUDIO
    TITLE "1Q_t_0088-0100_10"
    INDEX 01 00:12:12
  TRACK 11 AUDIO
    TITLE "1Q_t_0088-0100_11"
    INDEX 01 00:12:25
  TRACK 12 AUDIO
    TITLE "1Q_t_0088-0100_12"
    INDEX 01 00:17:07
  TRACK 13 AUDIO
    TITLE "1Q_t_0088-0100_13"
    INDEX 01 00:17:60
  TRACK 14 AUDIO
    TITLE "1Q_t_0088-0100_14"
    INDEX 01 00:18:71
  TRACK 15 AUDIO
    TITLE "1Q_t_0088-0100_15"
    INDEX 01 00:19:12
  TRACK 16 AUDIO
    TITLE "1Q_t_0088-0100_16"
    INDEX 01 00:20:27
  TRACK 17 AUDIO
    TITLE "1Q_t_0088-0100_17"
    INDEX 01 00:20:42
  TRACK 18 AUDIO
    TITLE "1Q_t_0088-0100_18"
    INDEX 01 00:25:16
  TRACK 19 AUDIO
    TITLE "1Q_t_0088-0100_19"
    INDEX 01 00:25:69
  TRACK 20 AUDIO
    TITLE "1Q_t_0088-0100_20"
    INDEX 01 00:27:13
  TRACK 21 AUDIO
    TITLE "1Q_t_0088-0100_21"
    INDEX 01 00:27:29
  TRACK 22 AUDIO
    TITLE "1Q_t_0088-0100_22"
    INDEX 01 00:28:44
  TRACK 23 AUDIO
    TITLE "1Q_t_0088-0100_23"
    INDEX 01 00:28:60
  TRACK 24 AUDIO
    TITLE "1Q_t_0088-0100_24"
    INDEX 01 00:34:07
  TRACK 25 AUDIO
    TITLE "1Q_t_0088-0100_25"
    INDEX 01 00:34:60
  TRACK 26 AUDIO
    TITLE "1Q_t_0088-0100_26"
    INDEX 01 00:36:10
  TRACK 27 AUDIO
    TITLE "1Q_t_0088-0100_27"
    INDEX 01 00:36:26
  TRACK 28 AUDIO
    TITLE "1Q_t_0088-0100_28"
    INDEX 01 00:37:72
  TRACK 29 AUDIO
    TITLE "1Q_t_0088-0100_29"
    INDEX 01 00:38:11
  TRACK 30 AUDIO
    TITLE "1Q_t_0088-0100_30"
    INDEX 01 00:42:58
  TRACK 31 AUDIO
    TITLE "1Q_t_0088-0100_31"
    INDEX 01 00:43:34
  TRACK 32 AUDIO
    TITLE "1Q_t_0088-0100_32"
    INDEX 01 00:44:57
  TRACK 33 AUDIO
    TITLE "1Q_t_0088-0100_33"
    INDEX 01 00:44:72
  TRACK 34 AUDIO
    TITLE "1Q_t_0088-0100_34"
    INDEX 01 00:48:66
  TRACK 35 AUDIO
    TITLE "1Q_t_0088-0100_35"
    INDEX 01 00:49:05
  TRACK 36 AUDIO
    TITLE "1Q_t_0088-0100_36"
    INDEX 01 00:56:38
  TRACK 37 AUDIO
    TITLE "1Q_t_0088-0100_37"
    INDEX 01 00:57:18
  TRACK 38 AUDIO
    TITLE "1Q_t_0088-0100_38"
    INDEX 01 00:58:29
  TRACK 39 AUDIO
    TITLE "1Q_t_0088-0100_39"
    INDEX 01 00:58:45
  TRACK 40 AUDIO
    TITLE "1Q_t_0088-0100_40"
    INDEX 01 01:01:33
  TRACK 41 AUDIO
    TITLE "1Q_t_0088-0100_41"
    INDEX 01 01:01:49
  TRACK 42 AUDIO
    TITLE "1Q_t_0088-0100_42"
    INDEX 01 01:09:55
  TRACK 43 AUDIO
    TITLE "1Q_t_0088-0100_43"
    INDEX 01 01:10:31
  TRACK 44 AUDIO
    TITLE "1Q_t_0088-0100_44"
    INDEX 01 01:11:34
  TRACK 45 AUDIO
    TITLE "1Q_t_0088-0100_45"
    INDEX 01 01:11:55
  TRACK 46 AUDIO
    TITLE "1Q_t_0088-0100_46"
    INDEX 01 01:12:72
  TRACK 47 AUDIO
    TITLE "1Q_t_0088-0100_47"
    INDEX 01 01:13:11
  TRACK 48 AUDIO
    TITLE "1Q_t_0088-0100_48"
    INDEX 01 01:18:20
  TRACK 49 AUDIO
    TITLE "1Q_t_0088-0100_49"
    INDEX 01 01:18:73
  TRACK 50 AUDIO
    TITLE "1Q_t_0088-0100_50"
    INDEX 01 01:20:23
  TRACK 51 AUDIO
    TITLE "1Q_t_0088-0100_51"
    INDEX 01 01:20:49
  TRACK 52 AUDIO
    TITLE "1Q_t_0088-0100_52"
    INDEX 01 01:23:43
  TRACK 53 AUDIO
    TITLE "1Q_t_0088-0100_53"
    INDEX 01 01:23:57
  TRACK 54 AUDIO
    TITLE "1Q_t_0088-0100_54"
    INDEX 01 01:29:71
  TRACK 55 AUDIO
    TITLE "1Q_t_0088-0100_55"
    INDEX 01 01:30:49
  TRACK 56 AUDIO
    TITLE "1Q_t_0088-0100_56"
    INDEX 01 01:31:72
  TRACK 57 AUDIO
    TITLE "1Q_t_0088-0100_57"
    INDEX 01 01:32:12
  TRACK 58 AUDIO
    TITLE "1Q_t_0088-0100_58"
    INDEX 01 01:34:37
  TRACK 59 AUDIO
    TITLE "1Q_t_0088-0100_59"
    INDEX 01 01:34:54
  TRACK 60 AUDIO
    TITLE "1Q_t_0088-0100_60"
    INDEX 01 01:39:40
  TRACK 61 AUDIO
    TITLE "1Q_t_0088-0100_61"
    INDEX 01 01:40:18
  TRACK 62 AUDIO
    TITLE "1Q_t_0088-0100_62"
    INDEX 01 01:41:21
  TRACK 63 AUDIO
    TITLE "1Q_t_0088-0100_63"
    INDEX 01 01:42:01
  TRACK 64 AUDIO
    TITLE "1Q_t_0088-0100_64"
    INDEX 01 01:43:14
  TRACK 65 AUDIO
    TITLE "1Q_t_0088-0100_65"
    INDEX 01 01:43:34
  TRACK 66 AUDIO
    TITLE "1Q_t_0088-0100_66"
    INDEX 01 01:45:01
  TRACK 67 AUDIO
    TITLE "1Q_t_0088-0100_67"
    INDEX 01 01:45:19
  TRACK 68 AUDIO
    TITLE "1Q_t_0088-0100_68"
    INDEX 01 01:49:05
  TRACK 69 AUDIO
    TITLE "1Q_t_0088-0100_69"
    INDEX 01 01:49:60
  TRACK 70 AUDIO
    TITLE "1Q_t_0088-0100_70"
    INDEX 01 01:50:69
  TRACK 71 AUDIO
    TITLE "1Q_t_0088-0100_71"
    INDEX 01 01:51:12
  TRACK 72 AUDIO
    TITLE "1Q_t_0088-0100_72"
    INDEX 01 01:52:25
  TRACK 73 AUDIO
    TITLE "1Q_t_0088-0100_73"
    INDEX 01 01:52:39
  TRACK 74 AUDIO
    TITLE "1Q_t_0088-0100_74"
    INDEX 01 01:57:16
  TRACK 75 AUDIO
    TITLE "1Q_t_0088-0100_75"
    INDEX 01 01:57:73
  TRACK 76 AUDIO
    TITLE "1Q_t_0088-0100_76"
    INDEX 01 01:59:09
  TRACK 77 AUDIO
    TITLE "1Q_t_0088-0100_77"
    INDEX 01 01:59:29
  TRACK 78 AUDIO
    TITLE "1Q_t_0088-0100_78"
    INDEX 01 02:00:54
  TRACK 79 AUDIO
    TITLE "1Q_t_0088-0100_79"
    INDEX 01 02:00:68
  TRACK 80 AUDIO
    TITLE "1Q_t_0088-0100_80"
    INDEX 01 02:05:30
